<svg xmlns="http://www.w3.org/2000/svg" width="190" height="38" viewBox="0 0 190 38" fill="#e53e3e">
<path d="M40.089 0.0878773C36.8501 0.175676 32.4425 0.428101 32.0711 0.537851C31.9564 0.576263 32.4043 1.22379 37.877 8.99956C41.1322 13.631 43.8248 17.4229 43.8576 17.4229C43.8849 17.4229 48.1942 13.6584 53.4212 9.05443C62.4658 1.09757 62.9246 0.686012 62.7772 0.6476C62.4931 0.570776 56.7965 0.307377 52.4053 0.164701C50.7449 0.109827 41.4216 0.0494633 40.089 0.0878773Z"/>
<path d="M78.0695 0.69688C78.0859 0.751755 78.7413 3.42416 79.5223 6.63983L80.9479 12.4785L79.6316 16.2155C78.9106 18.2733 78.3208 19.9744 78.3208 19.9909C78.3208 20.0128 79.1236 20.0293 80.1122 20.0293H81.8982L83.149 16.4954C83.8371 14.5473 84.4379 12.9011 84.4871 12.8242C84.5363 12.7529 86.7974 9.99817 89.5174 6.70019C92.2373 3.40221 94.4712 0.680416 94.4767 0.652979C94.4876 0.625542 93.6301 0.603592 92.4012 0.603592H90.3039L89.0477 2.1785C88.3595 3.04552 87.1361 4.57105 86.3332 5.56428C85.5248 6.563 84.6182 7.72086 84.3123 8.13791L83.7607 8.90616L83.6132 8.11596C83.433 7.15565 83.4002 7.002 82.5809 3.47904C82.2205 1.93705 81.9255 0.658466 81.9255 0.642004C81.9255 0.620054 81.0516 0.603592 79.9811 0.603592C78.1569 0.603592 78.0422 0.609079 78.0695 0.69688Z" />
<path d="M92.9038 10.2451C89.3154 15.5405 86.3552 19.9086 86.3333 19.9525C86.2951 20.0183 86.5791 20.0293 88.1411 20.0293H89.9982L91.4018 17.8892L92.811 15.7491H96.241C98.1253 15.7491 99.6819 15.7655 99.6928 15.7875C99.7037 15.8149 99.6819 16.6325 99.6436 17.6148C99.6054 18.5971 99.5726 19.5409 99.5726 19.711L99.5672 20.0293H101.255H102.943L102.975 19.3543C103.014 18.6135 103.445 1.63524 103.445 0.998692V0.603592H101.441L99.4306 0.609079L92.9038 10.2451ZM99.9768 8.70312C99.9003 10.5414 99.8403 12.1493 99.8403 12.2755V12.5114H97.2405C95.8095 12.5114 94.6516 12.4895 94.6625 12.4675C94.6734 12.4401 95.8969 10.7061 97.3825 8.60984L100.086 4.80152L100.102 5.08138C100.113 5.23503 100.053 6.86481 99.9768 8.70312Z"/>
<path d="M112.19 0.910891C111.994 1.4322 105.461 19.4366 105.352 19.7385L105.254 20.0293H111.497H117.734L118.302 18.4763C118.613 17.6258 118.876 16.8959 118.892 16.8575C118.908 16.8081 118.007 16.7917 114.484 16.7917C112.048 16.7917 110.055 16.7752 110.055 16.7588C110.055 16.7423 111.371 13.1151 112.977 8.70312C114.583 4.2857 115.899 0.658466 115.899 0.636517C115.899 0.620054 115.091 0.603592 114.102 0.603592H112.3L112.19 0.910891Z" />
<path d="M126.991 0.724295C126.963 0.795631 125.368 5.11977 123.446 10.3439C121.523 15.5679 119.934 19.8811 119.912 19.936C119.874 20.0238 119.972 20.0293 121.687 20.0183L123.506 20.0018L127.045 10.4042C128.995 5.13075 130.601 0.762707 130.617 0.707832C130.65 0.609056 130.59 0.603569 128.842 0.603569H127.04L126.991 0.724295Z"/>
<path d="M134.069 0.642124C134.053 0.664074 132.436 5.01016 130.481 10.2891C128.52 15.5736 126.904 19.9252 126.893 19.9581C126.86 20.0459 134.168 20.0569 135.096 19.9745C136.565 19.8374 137.947 19.4148 139.138 18.7289C141.421 17.4229 143.726 14.5145 144.813 11.5622C145.261 10.3495 145.654 8.68678 145.779 7.46856C145.867 6.618 145.812 5.29003 145.665 4.58214C145.272 2.73286 144.168 1.42683 142.584 0.938448C141.694 0.664074 141.443 0.647612 137.658 0.620174C135.632 0.603712 134.086 0.614687 134.069 0.642124ZM139.963 3.90169C140.198 3.93462 140.503 3.99498 140.64 4.04437C141.208 4.23643 141.727 4.80713 141.994 5.54245C142.442 6.74421 141.967 9.6855 140.995 11.7817C140.421 13.0109 139.526 14.284 138.586 15.2004C137.909 15.8644 137.308 16.2815 136.697 16.5174C135.948 16.8083 135.55 16.8522 133.501 16.8851L131.628 16.9125L131.77 16.5394C131.847 16.3309 132.917 13.4444 134.151 10.13C135.38 6.81006 136.413 4.03888 136.44 3.96754L136.489 3.84133H138.013C138.854 3.84133 139.733 3.86877 139.963 3.90169Z"/>
<path d="M148.013 10.053C146.052 15.2552 144.403 19.6232 144.348 19.7714L144.244 20.0293L146.057 20.0183L147.876 20.0019L151.519 10.3713C153.524 5.07589 155.162 0.707855 155.162 0.669441C155.168 0.620054 154.774 0.603592 153.376 0.603592H151.579L148.013 10.053Z"/>
<path d="M154.983 10.2506C152.973 15.5515 151.318 19.925 151.301 19.9634C151.285 20.0183 151.624 20.0293 152.962 20.0183L154.644 20.0019L157.107 13.5376C159.177 8.08304 159.57 7.09529 159.609 7.22699C159.631 7.3093 160.117 10.1683 160.685 13.5815C161.258 16.9892 161.739 19.8372 161.75 19.9031L161.777 20.0293H163.459H165.141L168.839 10.4097C170.871 5.12528 172.548 0.751755 172.569 0.69688C172.602 0.609079 172.498 0.603592 170.92 0.603592H169.232L166.747 7.07883C164.912 11.8639 164.251 13.5211 164.224 13.4278C164.208 13.362 163.7 10.4481 163.104 6.95261L162.023 0.603592H160.33H158.636L154.983 10.2506Z"/>
<path d="M176.207 0.751755C176.152 0.905403 169.101 19.1842 168.882 19.7439L168.768 20.0293L175.6 20.0183L182.433 20.0019L183.056 18.4105C183.4 17.538 183.678 16.8191 183.678 16.8081C183.678 16.7972 181.395 16.7862 178.61 16.7807L173.541 16.7642L174.513 14.3772C175.049 13.0657 176.103 10.3988 176.862 8.4507C177.616 6.50264 178.326 4.67531 178.435 4.38996L178.637 3.86865L183.351 3.84121L188.059 3.81377L188.681 2.2224C189.025 1.3444 189.304 0.625542 189.304 0.614567C189.304 0.609079 186.371 0.603592 182.782 0.603592H176.261L176.207 0.751755Z" />
<path d="M51.6895 18.8331L30.9512 36.9034L44.1359 36.9198C58.7297 36.9363 57.7357 36.9583 58.6041 36.5851C59.6637 36.1242 60.5813 35.2078 61.1875 33.995C61.3131 33.7371 72.6846 1.31703 72.7392 1.05363C72.7665 0.910954 72.6682 0.76828 72.5316 0.76828C72.477 0.76828 63.0991 8.90073 51.6895 18.8331Z" />
<path d="M23.2227 9.49891C22.103 12.9999 21.2018 15.8863 21.2128 15.9083C21.2291 15.9302 21.5514 15.9687 21.9282 15.9906C23.3483 16.0674 26.0573 16.3692 25.9809 16.4406C25.9317 16.49 23.9819 16.6875 22.7748 16.7643C22.0375 16.8137 21.3056 16.8686 21.1417 16.8906L20.8468 16.929L20.3116 18.6026C20.0166 19.5191 19.7818 20.2763 19.7872 20.2818C19.7927 20.2818 20.6338 20.3147 21.6552 20.3532C23.4848 20.419 25.3746 20.5397 25.4238 20.5891C25.4784 20.644 22.2996 20.9897 20.3498 21.1434L19.4759 21.2092L18.968 22.8006C18.6894 23.6731 18.46 24.3919 18.46 24.3974C18.46 24.3974 19.9893 24.3974 21.8627 24.3974C25.1671 24.3919 26.9695 24.4413 26.8111 24.5291C26.6964 24.595 24.2003 25.0065 22.9933 25.1547C21.819 25.3029 20.0603 25.484 18.8478 25.5882L18.0559 25.6541L16.5593 30.3184C15.1993 34.5712 15.0628 35.0267 15.0355 35.4547C14.9863 36.2559 15.2267 36.7004 15.8657 36.9967C16.1333 37.1229 16.1661 37.1229 18.5419 37.1394C19.8637 37.1504 21.1964 37.1394 21.5077 37.1229L22.0648 37.0845L29.8915 29.7807C34.1899 25.7638 37.7128 22.4494 37.7073 22.4165C37.7018 22.3396 25.3364 3.12793 25.2927 3.12793C25.2763 3.12793 24.3423 5.9924 23.2227 9.49891Z"/>
<path d="M178.638 6.61788C178.616 6.66178 176.268 12.687 175.946 13.5431C175.864 13.7571 175.836 13.8778 175.88 13.8504C175.918 13.8284 177.311 12.9504 178.971 11.8914L181.986 9.97623L181.227 9.16957C180.02 7.90196 178.671 6.5685 178.638 6.61788Z"/>
<path d="M13.4905 15.8096C11.6117 15.848 10.2135 15.9194 8.7388 16.0511C7.87584 16.1279 6.48855 16.2925 6.46124 16.32C6.43393 16.3474 8.25816 16.5669 9.14843 16.6547C11.7592 16.8961 16.8168 17.0333 19.6186 16.9291L20.7383 16.8907L20.8803 16.4187C20.9568 16.1553 21.0169 15.9413 21.0114 15.9358C21.0059 15.9303 20.3505 15.8974 19.5531 15.8645C17.5049 15.7822 15.5442 15.7657 13.4905 15.8096Z"/>
<path d="M14.6918 20.2817C10.7156 20.3421 5.95845 20.6 2.89439 20.9128C1.70919 21.0335 0.158048 21.2255 0.125277 21.253C0.10343 21.2749 1.37602 21.3682 3.08556 21.467C4.6367 21.5603 12.4197 21.5548 14.446 21.467C16.8601 21.3572 19.1322 21.2365 19.2524 21.2091C19.3398 21.1926 19.3944 21.0884 19.4872 20.7646C19.5582 20.5341 19.6019 20.3311 19.5856 20.3201C19.5528 20.2872 16.1119 20.2597 14.6918 20.2817Z" />
<path d="M17.9679 24.4634C15.3299 24.5841 11.9218 24.8969 9.47488 25.2481C8.24598 25.4237 6.76584 25.698 6.80954 25.7419C6.95701 25.8791 11.8289 25.9505 14.2812 25.8462C16.1164 25.7694 17.8478 25.6706 17.8969 25.6322C17.9461 25.5993 18.3175 24.4743 18.2847 24.4579C18.2793 24.4524 18.1318 24.4524 17.9679 24.4634Z"/>
<path d="M133.169 24.4742C132.065 24.6169 131.235 24.99 130.52 25.676C129.629 26.5265 129.16 27.6075 129.154 28.8367C129.149 29.5062 129.236 29.8245 129.564 30.3184C129.826 30.7135 130.197 30.9714 132.005 31.9975C132.983 32.5518 133.267 32.8481 133.267 33.3255C133.267 33.7096 133.119 34.0553 132.797 34.4011C132.295 34.9498 131.672 35.1474 130.613 35.1089C130.061 35.087 129.968 35.0705 129.64 34.9059C129.351 34.7632 129.253 34.6809 129.132 34.4724C129.001 34.2474 128.985 34.1651 128.99 33.748C128.99 33.4846 129.012 33.1938 129.034 33.0895L129.072 32.9085L128.346 32.9469C127.942 32.9688 127.439 32.9963 127.226 33.0182L126.838 33.0511L126.773 33.4243C126.696 33.8907 126.696 34.6809 126.767 35.0705C127.019 36.3985 128.182 37.1613 130.072 37.2436C131.901 37.3204 133.234 36.821 134.37 35.6248C135.561 34.3736 136.003 32.5243 135.397 31.3335C135.162 30.8726 134.605 30.4446 133.289 29.7147C131.699 28.8258 131.448 28.5953 131.454 28.0191C131.459 27.4923 131.841 26.9216 132.355 26.6747C132.841 26.4442 133.682 26.3948 134.266 26.5704C134.403 26.6088 134.6 26.7405 134.747 26.8887C135.042 27.1685 135.179 27.5362 135.179 28.0246V28.3209L135.359 28.2935C135.452 28.277 135.938 28.2496 136.435 28.2276C137.014 28.2057 137.352 28.1728 137.374 28.1289C137.445 28.0246 137.418 27.0423 137.336 26.6527C137.112 25.5827 136.298 24.798 135.151 24.5565C134.654 24.4522 133.671 24.4138 133.169 24.4742Z"/>
<path d="M143.546 24.4742C141.405 24.7486 139.919 26.1534 139.564 28.2441C139.422 29.1167 139.58 29.8794 140.045 30.4611C140.247 30.719 141.017 31.2403 141.951 31.7506C143.327 32.4969 143.644 32.7933 143.644 33.3256C143.644 33.7097 143.496 34.0554 143.174 34.4011C142.672 34.9499 142.049 35.1474 140.995 35.109C140.165 35.0761 139.7 34.8566 139.455 34.3792C139.356 34.1981 139.335 33.6219 139.406 33.1774L139.449 32.9085L138.745 32.9469C138.362 32.9634 137.86 32.9963 137.63 33.0128L137.215 33.0457L137.15 33.4243C137.073 33.8908 137.073 34.681 137.144 35.0706C137.396 36.3985 138.559 37.1668 140.449 37.2436C141.279 37.282 141.934 37.2052 142.573 37.0022C143.393 36.7443 143.928 36.4205 144.567 35.8114C145.479 34.9279 145.96 33.9292 146.031 32.7549C146.08 31.9372 145.894 31.3446 145.441 30.8891C145.184 30.6312 144.414 30.1154 143.759 29.7587C142.606 29.1386 142.071 28.7545 141.923 28.4472C141.705 27.9807 141.874 27.3991 142.36 26.9546C142.743 26.6034 143.114 26.4827 143.808 26.4772C144.441 26.4772 144.769 26.565 145.064 26.8174C145.381 27.0918 145.506 27.3716 145.545 27.8875L145.572 28.3155L145.741 28.2935C145.834 28.2771 146.315 28.2496 146.812 28.2277C147.391 28.2057 147.729 28.1728 147.751 28.1289C147.822 28.0192 147.795 26.982 147.713 26.6198C147.462 25.5553 146.659 24.798 145.528 24.5566C145.031 24.4523 144.048 24.4139 143.546 24.4742Z" />
<path d="M77.7594 24.6772C77.7376 24.7101 74.1055 34.0005 73.1333 36.5028L72.9258 37.0405H77.2843H81.6428L82.0306 36.0583C82.2436 35.5205 82.4183 35.065 82.4183 35.0431C82.4183 35.0266 80.9819 35.0102 79.2341 35.0102C77.4809 35.0102 76.0335 34.9992 76.0171 34.9827C76.0008 34.9663 76.3012 34.1925 76.678 33.2651C77.0603 32.3378 77.7977 30.4885 78.322 29.1495L79.2669 26.7241H82.2545H85.2366L85.6299 25.7198C85.8483 25.1656 86.0231 24.6937 86.0231 24.6772C86.0231 24.6223 77.7868 24.6278 77.7594 24.6772Z"/>
<path d="M86.8963 24.7211C86.8963 24.765 87.2295 26.1424 87.6391 27.7776L88.3764 30.7519L87.4589 31.6847C86.9564 32.2006 85.5582 33.6163 84.3566 34.8291L82.1719 37.0405H83.6848H85.1977L86.1972 36.0583C86.7488 35.515 87.6009 34.6425 88.0979 34.1157C88.5949 33.5834 89.0045 33.1609 89.0155 33.1718C89.0264 33.1773 89.0865 33.4682 89.1575 33.8139C89.2285 34.1596 89.4251 35.0266 89.5999 35.74L89.9112 37.0405H91.2166C92.2325 37.0405 92.511 37.0241 92.4946 36.9692C92.44 36.8155 90.9926 31.2842 90.9926 31.2348C90.9926 31.2018 92.4345 29.7147 94.1932 27.9203L97.3938 24.6662L95.9628 24.6498L94.5319 24.6388L93.9311 25.1985C93.5979 25.5113 92.6694 26.4442 91.872 27.2728C91.0746 28.1069 90.3973 28.7928 90.3645 28.7983C90.3372 28.8093 90.1843 28.288 90.0314 27.6459C89.8784 27.0039 89.6436 26.0656 89.5125 25.5552L89.2722 24.6388H88.087C87.0602 24.6388 86.8963 24.6498 86.8963 24.7211Z" />
<path d="M98.4806 24.7595C98.4533 24.8309 97.4538 27.3771 96.2631 30.4281C95.0724 33.4791 94.0019 36.2119 93.8872 36.5028L93.6797 37.0405H94.8321H95.99L96.9131 34.6809L97.8361 32.3213H99.1906C99.9334 32.3213 100.785 32.2939 101.091 32.2664C103.008 32.0689 104.215 31.2787 105.166 29.605C105.821 28.4471 106.094 27.1631 105.876 26.2412C105.685 25.4345 105.242 25.001 104.363 24.765C104.073 24.6882 103.604 24.6717 101.277 24.6553L98.5297 24.6333L98.4806 24.7595ZM102.451 26.7241C103.019 26.7789 103.243 26.8777 103.429 27.1631C103.751 27.635 103.391 28.7489 102.697 29.4239C102.38 29.7312 101.889 30.0001 101.468 30.0989C100.96 30.2141 98.639 30.3568 98.639 30.2745C98.639 30.247 100.01 26.7625 100.037 26.7131C100.075 26.6527 101.823 26.6582 102.451 26.7241Z"/>
<path d="M108.912 24.7595C108.885 24.8309 107.891 27.3771 106.695 30.4281C105.504 33.4791 104.434 36.2119 104.319 36.5028L104.111 37.0405H105.264H106.422L107.416 34.4998L108.41 31.9646L109.125 31.9481C109.917 31.9317 110.185 31.9811 110.431 32.1896C110.649 32.3707 110.9 32.8975 111.031 33.4462C111.168 34.0059 111.512 36.0583 111.561 36.6125L111.599 37.0405H112.839H114.079L113.926 36.1461C113.533 33.8523 113.216 32.7383 112.692 31.8274C112.681 31.811 112.943 31.7341 113.276 31.6573C115.068 31.2183 116.297 30.0111 116.744 28.2276C117.181 26.4991 116.755 25.204 115.636 24.8583C115.04 24.6717 114.44 24.6388 111.649 24.6388H108.961L108.912 24.7595ZM113.773 26.7789C114.538 26.9216 114.756 27.5417 114.347 28.4087C113.964 29.2099 113.222 29.7696 112.315 29.9397C111.829 30.0275 109.18 30.1153 109.18 30.044C109.18 30.0165 109.464 29.2593 109.819 28.3593L110.452 26.7241H111.965C112.801 26.7241 113.615 26.7515 113.773 26.7789Z"/>
<path d="M120.136 24.6827C120.12 24.7101 115.625 36.1955 115.346 36.9198L115.297 37.0405H119.661H124.025L124.385 36.1186C124.582 35.6138 124.757 35.1583 124.779 35.1089C124.811 35.0156 124.636 35.0102 121.578 35.0102C119.011 35.0102 118.35 34.9937 118.372 34.9388C118.383 34.9059 118.7 34.1376 119.065 33.2432L119.737 31.6079L122.627 31.5969L125.516 31.5805L125.898 30.6037C126.106 30.0659 126.275 29.5995 126.275 29.5721C126.275 29.5446 125.106 29.5227 123.413 29.5227H120.551L120.879 28.6831C121.059 28.2276 121.305 27.5966 121.425 27.2838L121.643 26.7241H124.631H127.613L127.979 25.7747C128.181 25.2589 128.361 24.787 128.383 24.7321C128.416 24.6443 128.198 24.6388 124.292 24.6388C122.02 24.6388 120.152 24.6553 120.136 24.6827Z"/>
<path d="M78.9549 30.7738C78.447 32.0908 77.9936 33.2541 77.9554 33.3529C77.8899 33.5065 77.8899 33.5285 77.9554 33.4901C77.9936 33.4681 78.8348 32.8919 79.8179 32.217C80.943 31.4432 81.5929 30.9603 81.5766 30.9164C81.5493 30.8396 79.9107 28.3703 79.8889 28.3703C79.8834 28.3703 79.4629 29.4513 78.9549 30.7738Z"/>
</svg>